# xmcd CD database file
# Copyright (C) 1997 Ti Kan
# 
# Track frame offsets:
#     182
#     14870
#     31610
#     47655
#     68137
#     85530
#     101542
#     121600
#     139265
#     172642
#     181082
# 
# Disc length: 2493 seconds
# 
# Revision: 1
# Processed by: cddbd v1.4b41PL1 Copyright (c) Steve Scherf et al.
# Submitted via: DiscPlay 4.0.4
# 
DISCID=7b09bb0b
DTITLE=Sonny Boy Williamson - Sonny Boy Williamson and and Animals
DYEAR=1900
DGENRE=
TTITLE0=Slow Walk
TTITLE1=Pontiac Blues
TTITLE2=My Babe
TTITLE3=I Don't Care No More
TTITLE4=Baby Don't  You Worry
TTITLE5=Night Time is The Right Time
TTITLE6=I'm Gonna Put You Down
TTITLE7=Fattening Frogs For Snakes
TTITLE8=Nobody But You
TTITLE9=Bye Bye Sonny
TTITLE10=Bye Bye Burdon
EXTD=
EXTT0=
EXTT1=
EXTT2=
EXTT3=
EXTT4=
EXTT5=
EXTT6=
EXTT7=
EXTT8=
EXTT9=
EXTT10=
PLAYORDER=
